<svg version="1.1" id="Layer_1" xmlns="http://www.w3.org/2000/svg" xmlns:xlink="http://www.w3.org/1999/xlink" x="0px" y="0px"
	 width="100%" viewBox="0 0 432 672" enable-background="new 0 0 432 672" xml:space="preserve">
<path fill="#000000" opacity="1.000000" stroke="none" 
	d="
M21.791321,316.986938 
	C21.382301,312.298920 19.715725,308.535187 17.029608,305.253876 
	C15.411182,303.276794 14.357404,301.094482 13.522133,298.703003 
	C12.821645,296.697388 12.227134,294.365173 10.052097,293.423767 
	C3.008076,290.374878 4.643186,284.272064 4.838737,278.764191 
	C5.027133,273.457855 7.227149,269.614136 12.941681,268.350128 
	C16.315197,267.603973 19.563108,266.289948 23.642084,264.983154 
	C19.765682,259.048401 20.220314,252.354996 19.085087,246.053513 
	C17.984375,239.943665 15.781720,233.576294 18.495070,227.102692 
	C19.384531,224.980606 18.561131,221.519943 17.822218,220.217361 
	C14.623505,214.578644 18.560001,208.675186 16.216494,202.975998 
	C15.203049,200.511383 18.810949,197.607315 20.818815,195.244370 
	C21.890915,193.982651 23.894651,192.844742 23.468166,191.238876 
	C21.744751,184.749649 25.269054,178.986450 27.266851,173.804581 
	C30.638493,165.059265 31.711018,154.628693 41.090103,148.739700 
	C46.417850,145.394485 48.343769,139.577209 49.221157,133.265076 
	C49.897072,128.402420 53.379513,124.429573 56.592506,120.996292 
	C69.773239,106.911964 80.802788,90.871635 95.758400,78.370369 
	C99.350327,75.367912 101.977043,71.292068 106.564186,69.328300 
	C108.590401,68.460861 109.470688,66.144562 110.216866,64.111313 
	C118.631638,41.182495 134.470566,25.335892 156.040405,14.297178 
	C169.048370,7.640142 182.132553,2.507516 196.983124,3.688126 
	C208.276382,4.585933 218.975525,7.614063 228.275360,14.249976 
	C231.604324,16.625376 234.587280,17.391945 238.739441,17.180912 
	C255.092789,16.349756 270.497925,19.966179 284.281433,29.156763 
	C291.211914,33.777870 297.974396,38.647957 303.573639,44.932785 
	C304.663361,46.155922 305.856689,47.465744 307.681946,47.558426 
	C320.518738,48.210236 329.691437,55.840290 337.931213,64.380386 
	C351.712097,78.663506 359.293823,95.525703 356.660492,115.955879 
	C356.237457,119.237823 362.838074,123.600388 365.982635,121.823303 
	C369.954498,119.578674 371.408081,121.528969 372.645569,124.736206 
	C373.670074,127.391449 374.138123,130.122879 374.430481,132.974915 
	C374.857086,137.136780 374.669342,141.348236 377.773132,145.118744 
	C379.524170,147.245895 378.380005,150.881287 377.656830,153.841873 
	C377.196045,155.728394 376.682770,157.475891 379.430908,158.698181 
	C382.836487,160.212875 381.315002,163.664810 381.040344,166.264496 
	C380.646942,169.988541 378.799225,173.525574 379.191010,177.296265 
	C382.802307,179.195312 385.768280,168.298492 389.187378,177.160629 
	C390.492096,180.542313 397.502472,181.262085 392.868347,186.836945 
	C401.765991,188.209061 401.765991,188.209061 396.404907,195.860229 
	C396.665070,197.038986 397.649109,196.737000 398.400116,196.743439 
	C400.045288,196.757523 401.405182,197.238678 401.923004,198.923477 
	C402.389740,200.441986 401.354156,201.460754 400.376801,202.359604 
	C398.322296,204.249039 396.197296,206.061844 393.770172,208.197418 
	C398.134888,210.525909 400.342499,212.899689 394.791016,215.822372 
	C393.100372,216.712479 393.553528,218.363556 393.961365,219.838089 
	C395.256531,224.520340 396.617493,229.174805 392.933594,233.525269 
	C392.491547,234.047302 392.581604,235.104019 392.590515,235.911087 
	C392.708923,246.646637 390.475647,256.989960 387.990265,267.377594 
	C386.214996,274.797241 385.195862,282.404144 382.710785,289.663208 
	C381.855957,292.160217 383.081787,293.397247 385.204437,294.241302 
	C389.456573,295.932129 393.042480,298.609283 396.218445,301.854095 
	C406.924896,312.792633 405.477234,325.477692 399.697723,337.518921 
	C392.121155,353.304169 385.697449,369.545288 378.884430,385.626953 
	C374.999786,394.796326 372.326202,404.478241 369.094086,413.924835 
	C367.465149,418.685883 364.852264,422.541504 359.849731,424.382202 
	C355.468262,425.994415 351.174530,427.612427 347.680786,422.480652 
	C345.570923,424.706787 346.286591,426.970825 346.381927,428.933350 
	C347.486359,451.667969 341.930603,473.154938 334.272949,494.246704 
	C329.787720,506.600555 320.414734,515.662659 312.852478,525.970215 
	C295.199707,550.031311 272.675476,569.437134 251.785706,590.388733 
	C235.556046,606.666382 216.040253,615.682373 192.603714,616.523865 
	C178.147263,617.042908 164.020645,615.424255 150.273346,611.910706 
	C134.810059,607.958679 122.996246,597.666138 112.661835,585.791260 
	C104.224136,576.095764 97.106010,565.440857 89.821274,554.870667 
	C83.222107,545.295227 75.612106,536.407654 68.314133,527.324219 
	C51.558559,506.469391 41.617760,482.871460 37.477547,456.361938 
	C33.752869,432.513031 34.960602,408.548248 33.678341,384.651886 
	C33.027851,372.529236 32.370621,360.405487 31.528564,348.295258 
	C31.094318,342.050049 27.686655,336.646240 25.991438,330.742157 
	C24.706139,326.265778 23.242788,321.840454 21.791321,316.986938 
M141.588959,429.467957 
	C139.249008,427.611115 136.560364,426.056244 134.638489,423.837311 
	C130.012253,418.496033 124.741867,414.066559 118.833237,410.193024 
	C111.216209,405.199524 110.227196,400.500305 113.431343,391.742920 
	C117.429810,380.814514 122.187767,370.140167 125.010574,358.807404 
	C126.020584,354.752533 127.538528,350.642731 126.042259,346.093109 
	C105.002609,369.433105 59.265465,369.809875 36.926098,352.149872 
	C37.554977,373.343719 39.899830,394.343994 39.336246,415.448242 
	C39.300354,416.792358 39.461769,418.054077 40.413479,419.175903 
	C43.531616,422.851501 45.806786,427.149414 49.195061,430.658997 
	C54.026096,435.663025 57.061176,441.603455 58.482685,448.539948 
	C60.454651,458.162415 63.266087,467.605194 67.902702,476.320190 
	C70.978958,482.102386 74.842690,487.338562 82.723862,489.787598 
	C79.854843,483.065491 77.881523,477.187073 74.944183,471.838013 
	C69.849098,462.559631 70.168350,453.002930 72.397194,443.247253 
	C73.977852,436.328644 77.172287,434.162567 84.378738,433.611145 
	C95.474846,432.762146 106.591118,432.397217 117.678772,431.071869 
	C125.663467,430.117462 133.791245,428.322937 142.247314,430.657867 
	C145.638397,434.541473 150.242783,432.905243 154.388977,433.301636 
	C161.079987,433.941315 167.479858,433.688812 173.755981,430.340454 
	C179.211685,427.429810 185.402008,427.697266 191.181931,429.952606 
	C205.974014,435.724640 221.304031,435.536072 236.391830,432.766846 
	C245.047256,431.178223 253.391113,429.006256 262.348297,429.549438 
	C271.222198,430.087646 277.964905,434.029846 283.072113,440.786102 
	C288.966187,448.583405 286.994690,456.695770 283.080566,464.734528 
	C280.632935,469.761414 279.076599,475.094910 278.227142,480.625732 
	C280.737122,481.309540 282.357330,480.351349 284.040955,479.713837 
	C300.705475,473.403412 308.285400,458.083801 318.186066,445.103424 
	C319.206390,443.765778 319.222351,441.627441 319.596954,439.838135 
	C320.988068,433.193390 321.480835,426.363312 324.441986,420.064575 
	C329.968292,408.309357 334.921967,396.270203 338.244965,383.723450 
	C342.362000,368.178650 347.410522,352.720154 346.635986,336.292053 
	C346.276154,328.659424 343.756683,321.035614 344.836060,313.484528 
	C346.689301,300.519318 342.522003,291.907440 330.036652,286.984985 
	C326.257446,285.494995 324.101746,285.978485 321.869324,288.637604 
	C320.337494,290.462158 319.639313,292.782410 319.432251,295.094879 
	C319.163086,298.101379 317.942200,300.254974 314.979553,300.988251 
	C312.595734,301.578278 312.493439,302.966461 312.597961,305.072174 
	C313.448212,322.199615 310.465546,338.110870 298.628052,351.568787 
	C295.522064,355.099945 292.278809,357.517212 287.930298,359.165466 
	C279.207336,362.471741 270.161621,363.111053 261.010071,363.776428 
	C251.164688,364.492279 241.426804,364.891266 231.781555,362.220306 
	C202.939209,354.233307 186.907776,337.177948 182.281296,305.846283 
	C181.143158,298.138458 175.917084,292.148651 170.776154,286.469513 
	C170.178986,285.809845 169.021408,285.521271 168.070282,285.338806 
	C154.864563,282.805817 144.184479,291.720306 144.193863,305.235779 
	C144.194901,306.734528 144.330643,308.235352 144.281311,309.731171 
	C144.248886,310.714447 144.357086,312.082794 143.785721,312.608276 
	C138.719482,317.267853 138.355560,324.291473 134.963547,329.762665 
	C131.914276,334.681091 130.491547,339.826385 131.273987,345.756378 
	C131.742355,349.306274 131.461563,353.009155 130.640106,356.664825 
	C127.704300,369.730194 122.078484,381.856903 117.767632,394.438904 
	C115.757477,400.305939 116.080933,402.453156 121.328667,405.752380 
	C127.889229,409.877045 133.511856,414.895905 138.688782,420.644958 
	C144.880676,427.521118 156.189423,428.293121 163.567245,422.859772 
	C167.590347,419.896973 171.678223,417.008148 175.191620,413.418488 
	C181.359299,407.116791 188.659195,404.027344 197.646393,404.618500 
	C202.410370,404.931824 207.303528,405.280731 212.012177,403.647369 
	C219.471909,401.059692 221.588959,396.125854 217.680954,389.313080 
	C215.708023,385.873657 213.005386,382.855927 210.675430,379.616760 
	C209.746338,378.325104 209.165756,376.864136 210.663528,375.624298 
	C212.034500,374.489349 213.212448,375.447266 214.127899,376.431610 
	C217.880768,380.466949 221.510468,384.617126 223.504089,389.869263 
	C226.226288,397.040894 223.895462,403.091156 217.181870,406.774170 
	C212.765564,409.196960 207.977921,409.746124 203.130569,409.350616 
	C192.565720,408.488708 183.378662,410.843201 176.226547,419.297974 
	C174.326141,421.544556 171.385742,422.883942 169.321213,425.024078 
	C161.980652,432.633514 153.298630,432.780060 143.970337,430.038849 
	C143.366180,429.861298 142.674316,429.982208 141.588959,429.467957 
M170.009247,85.328682 
	C164.686554,84.174866 160.093475,87.281242 155.053146,87.898376 
	C139.247086,89.833679 125.519981,96.158043 113.560432,106.889992 
	C104.595352,114.934845 96.721825,123.907433 88.581711,132.706528 
	C63.518425,159.798798 49.119598,192.095444 41.873192,227.805649 
	C39.580425,239.104385 39.414757,250.749435 39.192806,262.206116 
	C41.582035,262.960724 42.380623,261.744934 43.489094,260.266235 
	C53.818573,246.486801 67.654305,239.696335 84.869858,240.864243 
	C96.642601,241.662918 108.274765,243.640366 119.646774,247.089813 
	C130.495255,250.380463 132.029633,251.930099 133.086731,263.232178 
	C133.396820,266.547516 132.790039,269.315704 128.277557,269.759186 
	C135.470871,274.147980 142.077759,276.113739 150.111130,274.036896 
	C159.442810,271.624329 169.145187,270.926270 178.765945,273.304016 
	C182.185318,274.149078 185.312012,273.504578 188.128143,271.408844 
	C182.765137,258.284973 190.746216,250.579529 200.625626,247.903809 
	C205.121552,246.686111 209.521698,245.067627 214.061539,244.068054 
	C227.185165,241.178513 240.219666,237.155029 253.834839,237.972809 
	C271.515625,239.034790 287.914185,245.147980 304.137512,251.787888 
	C308.999847,253.777924 312.293579,256.289612 309.759277,262.423492 
	C314.432770,262.322571 318.375885,263.812897 322.626038,263.408295 
	C325.213745,263.161926 328.021118,264.015778 329.459930,266.581207 
	C332.544312,272.080780 338.060944,271.696350 342.980194,273.214020 
	C344.289948,265.975281 343.110901,260.548248 338.940338,253.610413 
	C335.498260,247.884460 332.291504,242.124023 331.596466,235.245224 
	C330.054230,219.982452 329.796997,204.651154 329.926117,189.363266 
	C330.058441,173.699081 326.230225,159.851120 317.390350,146.725693 
	C299.733978,120.509430 277.623962,100.952141 246.119949,93.233185 
	C221.356659,87.165787 196.251343,85.332710 170.009247,85.328682 
M139.518173,531.086609 
	C137.420212,525.702332 133.387924,521.611023 130.112289,517.013855 
	C128.669327,514.988708 128.021072,512.703491 129.068542,510.422028 
	C130.189072,507.981506 132.598785,507.682129 135.030579,507.659912 
	C139.609512,507.618134 143.856781,509.121552 148.184784,510.317230 
	C152.820862,511.597961 157.275284,513.971069 162.171936,513.803894 
	C175.640869,513.343994 189.088837,512.647400 201.369904,505.982391 
	C203.671921,504.733032 206.315720,503.966095 208.895111,503.407166 
	C213.633041,502.380493 216.218750,504.566101 216.308167,509.446045 
	C216.395584,514.217407 213.995682,518.014343 211.300476,521.672913 
	C208.442429,525.552429 204.968414,528.936768 202.594986,533.223083 
	C200.289825,537.386108 202.526016,540.289124 204.960968,543.022095 
	C207.255035,545.596924 209.845169,544.152405 212.177063,542.734070 
	C226.755783,533.867310 237.988602,521.339294 246.508789,507.058655 
	C254.294159,494.009735 257.971191,479.125061 256.829376,463.464508 
	C256.316162,456.425537 255.042374,454.745575 248.415878,456.501953 
	C231.484070,460.989716 214.418289,459.640656 197.331177,458.378448 
	C191.879807,457.975769 186.593872,457.802338 181.101227,458.999603 
	C171.866791,461.012482 162.329956,463.129852 152.977814,460.204712 
	C140.517166,456.307281 127.962723,457.759399 115.375977,458.364044 
	C114.091797,458.425720 112.648155,458.353516 111.933289,460.439789 
	C115.433136,464.281982 119.818657,467.206207 124.539703,469.598419 
	C154.205002,484.630157 184.685013,486.166473 215.937393,475.048309 
	C223.355576,472.409241 230.226944,468.713593 237.041946,464.855774 
	C238.475082,464.044495 240.227112,463.096893 241.418564,465.103119 
	C242.595383,467.084778 240.939072,468.120575 239.579056,469.093323 
	C238.905502,469.575043 238.138855,469.926147 237.416809,470.340668 
	C214.374039,483.570190 189.823303,489.569489 163.169983,486.464447 
	C142.500031,484.056488 123.770180,477.179108 107.576111,463.925049 
	C105.939491,462.585571 103.828949,461.421387 103.498764,459.076691 
	C103.270500,457.455750 103.131813,455.955078 101.126175,456.019531 
	C99.232300,456.080383 98.867363,457.829590 98.463470,459.210388 
	C98.004662,460.778931 97.430458,462.506989 97.663750,464.051300 
	C98.678085,470.765808 100.190758,477.408478 101.102989,484.134125 
	C102.303452,492.984741 106.902008,500.711365 108.909004,509.308502 
	C111.543068,520.591736 113.586128,532.041870 119.987709,542.202576 
	C124.772415,549.796936 131.752609,551.538452 138.618362,545.945740 
	C144.047745,541.523132 140.924698,536.643677 139.518173,531.086609 
M305.740814,289.785004 
	C301.525208,273.303589 292.753876,266.015717 276.066895,265.114594 
	C274.405731,265.024902 272.748810,264.859528 271.088531,264.750488 
	C250.194031,263.377930 229.532639,264.346008 209.499252,271.155640 
	C191.231323,277.365112 188.456268,283.974060 187.597458,300.434723 
	C186.317444,324.968719 201.564362,346.803436 226.805908,355.715820 
	C242.027542,361.090332 257.266144,359.212524 272.642212,357.832977 
	C291.272278,356.161499 299.624695,346.594299 305.112091,330.045776 
	C309.361115,317.231964 308.556580,303.810120 305.740814,289.785004 
M135.848068,311.668884 
	C136.391479,301.949982 135.684540,292.395233 130.513840,283.857941 
	C127.892105,279.529205 123.768616,276.944366 118.980324,274.812714 
	C99.136383,265.978607 78.666656,265.970367 57.812675,269.382568 
	C55.404339,269.776611 53.511948,270.816772 53.494347,273.385986 
	C53.433399,282.281616 52.089645,291.267242 54.817146,300.002380 
	C55.201218,300.002380 55.405483,300.066742 55.519562,299.992523 
	C56.769485,299.179230 58.012783,298.355194 59.243877,297.513580 
	C77.603012,284.962952 96.960236,281.345520 117.673515,291.265381 
	C122.323082,293.492096 126.783226,296.238495 129.515717,300.899139 
	C130.382965,302.378357 132.008545,304.249146 129.884552,305.721680 
	C127.808411,307.161041 126.651360,305.229126 125.530167,303.741272 
	C122.475739,299.687927 118.501335,296.967224 113.101082,294.812531 
	C113.951935,300.869232 112.310005,305.738342 111.031990,310.686584 
	C109.960510,314.835205 107.296089,316.809692 103.156654,316.997955 
	C101.328682,317.081116 99.494843,317.025116 97.664558,317.069489 
	C86.715157,317.334869 79.558861,307.871124 82.528236,297.217529 
	C82.995667,295.540466 84.274452,293.997772 83.703262,291.645996 
	C73.544502,294.500885 64.545563,299.193695 56.669827,306.066467 
	C55.110596,307.427124 55.054008,309.243256 54.980282,311.093048 
	C54.661160,319.099670 53.374252,326.939697 51.017094,334.610077 
	C49.748299,338.738831 48.721176,342.942322 47.431541,347.064087 
	C46.097660,351.327271 47.321938,353.748322 51.763969,355.165039 
	C64.308167,359.165802 76.961029,360.766174 90.094872,358.842987 
	C113.996841,355.343048 132.841644,336.363342 135.848068,311.668884 
M351.446625,386.870422 
	C350.179871,393.893799 348.923889,400.919098 347.641968,407.939728 
	C346.960327,411.672943 351.004456,419.791321 353.939636,420.516785 
	C356.946838,421.260040 362.107330,417.720642 363.770782,413.399750 
	C365.439484,409.065094 366.722656,404.583405 368.232025,400.185730 
	C375.363556,379.407715 383.873260,359.200500 393.511658,339.467163 
	C395.417389,335.565521 396.825287,331.542694 397.958008,327.333984 
	C402.359802,310.978577 391.010986,301.438568 380.308105,297.787994 
	C377.654755,296.882965 375.185272,297.420959 373.735443,299.836823 
	C372.497101,301.900177 371.114899,302.365204 368.822266,302.100891 
	C365.052521,301.666351 362.847046,303.738434 362.397064,307.414581 
	C361.893005,311.532593 361.876587,315.718872 361.228729,319.809021 
	C359.631592,329.892609 360.512085,340.066559 359.903717,350.189606 
	C359.153259,362.676422 353.855377,373.976501 351.446625,386.870422 
M27.272909,318.367096 
	C30.852869,328.797882 32.262489,340.312042 41.861347,348.764771 
	C43.148506,344.297211 44.215805,340.833191 45.141602,337.331696 
	C47.390671,328.825409 50.340225,320.437256 49.706081,311.419434 
	C49.590824,309.780396 49.871037,308.008728 47.976044,307.078125 
	C41.018902,303.661682 34.065121,300.238403 27.082716,296.804230 
	C27.082716,304.170685 27.082716,310.873108 27.272909,318.367096 
M47.821373,289.404877 
	C47.210941,283.365601 49.219662,277.329376 48.296349,270.859833 
	C44.878296,271.105560 41.826073,270.896423 39.019932,271.629364 
	C35.029713,272.671631 31.028496,274.121185 29.479355,278.700500 
	C28.886465,280.453125 28.785686,281.758820 30.797945,282.791809 
	C35.660717,285.288147 40.415585,287.994324 45.222378,290.600372 
	C46.152668,291.104736 47.090027,291.381805 47.821373,289.404877 
M303.846649,74.042244 
	C302.891235,71.247368 302.632660,68.209236 300.852478,65.478180 
	C299.933533,66.587479 297.980164,65.868912 297.314972,68.164879 
	C300.385712,70.828133 299.334839,76.913986 305.922272,78.743851 
	C305.020081,76.707809 304.568817,75.689407 303.846649,74.042244 
M205.343765,37.600529 
	C210.438522,34.951309 216.026489,33.671555 221.396500,31.799221 
	C213.551041,32.966892 206.241592,35.519417 199.813293,40.315006 
	C201.434814,39.507099 203.056351,38.699188 205.343765,37.600529 
M205.726074,14.653855 
	C206.025543,14.464216 206.829437,15.050151 206.608963,14.088555 
	C206.582870,13.974794 206.353409,13.857635 206.202118,13.829918 
	C202.157623,13.088983 198.160583,13.308694 194.210571,14.654728 
	C197.840866,14.654728 201.471146,14.654728 205.726074,14.653855 
z"/>
<path fill="#000000" opacity="1.000000" stroke="none" 
	d="
M297.123535,428.093262 
	C301.479126,435.099304 300.602264,442.435211 299.906464,449.679840 
	C299.703705,451.790466 298.375427,453.696289 296.933746,455.341431 
	C295.867950,456.557739 294.588989,457.330170 293.047241,456.165771 
	C291.452728,454.961456 292.118896,453.760437 292.975739,452.314606 
	C299.248169,441.730347 295.664093,430.322205 284.589661,425.237488 
	C282.870422,424.448151 280.204376,423.957642 281.272614,421.273407 
	C282.315857,418.651947 284.592133,419.839813 286.385376,420.633453 
	C290.318970,422.374329 294.399475,423.935699 297.123535,428.093262 
z"/>
<path fill="#000000" opacity="1.000000" stroke="none" 
	d="
M233.578247,300.870239 
	C233.711273,299.033752 233.814026,297.572113 233.965393,295.419067 
	C226.164246,299.395782 217.989349,301.742920 213.829636,309.901489 
	C212.988434,311.551392 211.937698,313.551056 209.704193,312.166260 
	C207.554550,310.833496 208.936508,308.947479 209.690231,307.317535 
	C212.524506,301.188446 217.917664,297.903687 223.527374,294.841370 
	C245.064728,283.084290 268.977051,286.229431 285.834503,303.058868 
	C286.423645,303.647034 287.057037,304.212708 287.537506,304.883606 
	C288.812836,306.664398 291.702606,308.505951 289.397797,310.763367 
	C286.804321,313.303528 285.350494,310.047577 283.970398,308.467010 
	C278.319702,301.995728 271.030304,298.225159 262.239044,294.706726 
	C263.569214,303.434265 263.599030,311.274078 255.942215,316.573456 
	C252.478088,318.971069 248.639359,318.755127 244.859909,318.224426 
	C238.043152,317.267303 232.536545,308.814178 233.578247,300.870239 
z"/>
</svg>